HIERARCHY
ROOT Hips
{
    OFFSET   0.000000   0.000000   0.000000
    CHANNELS 6 Xposition Yposition Zposition Zrotation Xrotation Yrotation
    JOINT Chest
    {
        OFFSET   0.000000   8.007230   0.000000
        CHANNELS 3 Zrotation Xrotation Yrotation
        JOINT Chest2
        {
            OFFSET   0.000000  22.077100   0.000000
            CHANNELS 3 Zrotation Xrotation Yrotation
            JOINT Neck
            {
                OFFSET   0.000000  23.255100   0.000000
                CHANNELS 3 Zrotation Xrotation Yrotation
                JOINT Head
                {
                    OFFSET   0.000000  14.370100   1.956600
                    CHANNELS 3 Zrotation Xrotation Yrotation
                    End Site
                    {
                        OFFSET   0.000000  19.566000   0.000000
                    }
                }
            }
            JOINT LeftCollar
            {
                OFFSET   3.911900  19.017000  -0.467063
                CHANNELS 3 Zrotation Xrotation Yrotation
                JOINT LeftShoulder
                {
                    OFFSET  10.383700   0.000000   0.000000
                    CHANNELS 3 Zrotation Xrotation Yrotation
                    JOINT LeftElbow
                    {
                        OFFSET  26.662100   0.001193   0.000980
                        CHANNELS 3 Zrotation Xrotation Yrotation
                        JOINT LeftWrist
                        {
                            OFFSET  28.869000  -0.000059  -0.000082
                            CHANNELS 3 Zrotation Xrotation Yrotation
                            JOINT LeftFinger0
                            {
                                OFFSET   2.044650  -2.323450   3.252850
                                CHANNELS 3 Zrotation Xrotation Yrotation
                                JOINT LeftFinger01
                                {
                                    OFFSET   3.088130   0.000000   0.000000
                                    CHANNELS 3 Zrotation Xrotation Yrotation
                                    JOINT LeftFinger02
                                    {
                                        OFFSET   2.639460   0.000000   0.000000
                                        CHANNELS 3 Zrotation Xrotation Yrotation
                                        End Site
                                        {
                                            OFFSET   2.582190   0.000000   0.000000
                                        }
                                    }
                                }
                            }
                            JOINT LeftFinger1
                            {
                                OFFSET   8.364480   0.000000   3.252850
                                CHANNELS 3 Zrotation Xrotation Yrotation
                                JOINT LeftFinger11
                                {
                                    OFFSET   4.646930   0.000000   0.000000
                                    CHANNELS 3 Zrotation Xrotation Yrotation
                                    JOINT LeftFinger12
                                    {
                                        OFFSET   2.323470   0.000000   0.000000
                                        CHANNELS 3 Zrotation Xrotation Yrotation
                                        End Site
                                        {
                                            OFFSET   2.273050   0.000000   0.000000
                                        }
                                    }
                                }
                            }
                            JOINT LeftFinger2
                            {
                                OFFSET   8.364490   0.000016   1.078090
                                CHANNELS 3 Zrotation Xrotation Yrotation
                                JOINT LeftFinger21
                                {
                                    OFFSET   5.111610   0.000000   0.000000
                                    CHANNELS 3 Zrotation Xrotation Yrotation
                                    JOINT LeftFinger22
                                    {
                                        OFFSET   2.788150   0.000016   0.000000
                                        CHANNELS 3 Zrotation Xrotation Yrotation
                                        End Site
                                        {
                                            OFFSET   2.727660   0.000000   0.000000
                                        }
                                    }
                                }
                            }
                            JOINT LeftFinger3
                            {
                                OFFSET   7.899780   0.000015  -1.078090
                                CHANNELS 3 Zrotation Xrotation Yrotation
                                JOINT LeftFinger31
                                {
                                    OFFSET   4.646930   0.000000   0.000000
                                    CHANNELS 3 Zrotation Xrotation Yrotation
                                    JOINT LeftFinger32
                                    {
                                        OFFSET   2.323470   0.000000   0.000000
                                        CHANNELS 3 Zrotation Xrotation Yrotation
                                        End Site
                                        {
                                            OFFSET   2.273050   0.000000   0.000000
                                        }
                                    }
                                }
                            }
                            JOINT LeftFinger4
                            {
                                OFFSET   7.435090   0.000000  -3.252850
                                CHANNELS 3 Zrotation Xrotation Yrotation
                                JOINT LeftFinger41
                                {
                                    OFFSET   3.717550   0.000000   0.000000
                                    CHANNELS 3 Zrotation Xrotation Yrotation
                                    JOINT LeftFinger42
                                    {
                                        OFFSET   1.858770   0.000000   0.000000
                                        CHANNELS 3 Zrotation Xrotation Yrotation
                                        End Site
                                        {
                                            OFFSET   1.818440   0.000000   0.000000
                                        }
                                    }
                                }
                            }
                        }
                    }
                }
            }
            JOINT RightCollar
            {
                OFFSET  -3.911910  19.017000  -0.467062
                CHANNELS 3 Zrotation Xrotation Yrotation
                JOINT RightShoulder
                {
                    OFFSET -10.383700   0.000014   0.000000
                    CHANNELS 3 Zrotation Xrotation Yrotation
                    JOINT RightElbow
                    {
                        OFFSET -26.662100   0.001225   0.001091
                        CHANNELS 3 Zrotation Xrotation Yrotation
                        JOINT RightWrist
                        {
                            OFFSET -28.869000  -0.000020  -0.000085
                            CHANNELS 3 Zrotation Xrotation Yrotation
                            JOINT RightFinger0
                            {
                                OFFSET  -2.044650  -2.323490   3.252850
                                CHANNELS 3 Zrotation Xrotation Yrotation
                                JOINT RightFinger01
                                {
                                    OFFSET  -3.088130   0.000000   0.000000
                                    CHANNELS 3 Zrotation Xrotation Yrotation
                                    JOINT RightFinger02
                                    {
                                        OFFSET  -2.639460   0.000000   0.000000
                                        CHANNELS 3 Zrotation Xrotation Yrotation
                                        End Site
                                        {
                                            OFFSET  -2.582190   0.000000   0.000000
                                        }
                                    }
                                }
                            }
                            JOINT RightFinger1
                            {
                                OFFSET  -8.364480   0.000000   3.252850
                                CHANNELS 3 Zrotation Xrotation Yrotation
                                JOINT RightFinger11
                                {
                                    OFFSET  -4.646930   0.000000   0.000000
                                    CHANNELS 3 Zrotation Xrotation Yrotation
                                    JOINT RightFinger12
                                    {
                                        OFFSET  -2.323470   0.000000   0.000000
                                        CHANNELS 3 Zrotation Xrotation Yrotation
                                        End Site
                                        {
                                            OFFSET  -2.273050   0.000000   0.000000
                                        }
                                    }
                                }
                            }
                            JOINT RightFinger2
                            {
                                OFFSET  -8.364480   0.000000   1.078090
                                CHANNELS 3 Zrotation Xrotation Yrotation
                                JOINT RightFinger21
                                {
                                    OFFSET  -5.111620   0.000000   0.000000
                                    CHANNELS 3 Zrotation Xrotation Yrotation
                                    JOINT RightFinger22
                                    {
                                        OFFSET  -2.788160   0.000000   0.000000
                                        CHANNELS 3 Zrotation Xrotation Yrotation
                                        End Site
                                        {
                                            OFFSET  -2.727660   0.000000   0.000000
                                        }
                                    }
                                }
                            }
                            JOINT RightFinger3
                            {
                                OFFSET  -7.899780   0.000000  -1.078090
                                CHANNELS 3 Zrotation Xrotation Yrotation
                                JOINT RightFinger31
                                {
                                    OFFSET  -4.646930   0.000000   0.000000
                                    CHANNELS 3 Zrotation Xrotation Yrotation
                                    JOINT RightFinger32
                                    {
                                        OFFSET  -2.323470   0.000000   0.000000
                                        CHANNELS 3 Zrotation Xrotation Yrotation
                                        End Site
                                        {
                                            OFFSET  -2.273050   0.000000   0.000000
                                        }
                                    }
                                }
                            }
                            JOINT RightFinger4
                            {
                                OFFSET  -7.435090   0.000000  -3.252850
                                CHANNELS 3 Zrotation Xrotation Yrotation
                                JOINT RightFinger41
                                {
                                    OFFSET  -3.717550   0.000000   0.000000
                                    CHANNELS 3 Zrotation Xrotation Yrotation
                                    JOINT RightFinger42
                                    {
                                        OFFSET  -1.858760   0.000000   0.000000
                                        CHANNELS 3 Zrotation Xrotation Yrotation
                                        End Site
                                        {
                                            OFFSET  -1.818440   0.000000   0.000000
                                        }
                                    }
                                }
                            }
                        }
                    }
                }
            }
        }
    }
    JOINT LeftHip
    {
        OFFSET   9.783030   0.000000   0.000000
        CHANNELS 3 Zrotation Xrotation Yrotation
        JOINT LeftKnee
        {
            OFFSET   0.000063 -41.789100   0.000608
            CHANNELS 3 Zrotation Xrotation Yrotation
            JOINT LeftAnkle
            {
                OFFSET   0.000048 -41.133200  -0.000184
                CHANNELS 3 Zrotation Xrotation Yrotation
                JOINT LeftToe
                {
                    OFFSET   0.000000  -6.358960  14.674500
                    CHANNELS 3 Zrotation Xrotation Yrotation
                    End Site
                    {
                        OFFSET   0.000000   0.000000   3.913200
                    }
                }
            }
        }
    }
    JOINT RightHip
    {
        OFFSET  -9.783030   0.000000   0.000000
        CHANNELS 3 Zrotation Xrotation Yrotation
        JOINT RightKnee
        {
            OFFSET   0.000071 -41.789100   0.001239
            CHANNELS 3 Zrotation Xrotation Yrotation
            JOINT RightAnkle
            {
                OFFSET   0.000037 -41.133200  -0.000166
                CHANNELS 3 Zrotation Xrotation Yrotation
                JOINT RightToe
                {
                    OFFSET   0.000000  -6.358960  14.674500
                    CHANNELS 3 Zrotation Xrotation Yrotation
                    End Site
                    {
                        OFFSET   0.000000   0.000000   3.913200
                    }
                }
            }
        }
    }
}
MOTION
Frames: 4
Frame Time:   0.016667
  0.411315  89.785100   3.307070  -0.711680  -6.930090  -1.428490   1.277870   6.109990  -1.106750   2.699580  12.192300  -2.371630   0.648126  -2.764550   0.038408   1.072470  -5.603170   8.658500  -8.990240  -6.611360   3.315610 -56.838400  36.037100 -31.175800   0.543826  -5.616950 -107.579000  13.750800 -32.287000  -4.897230  54.059800  51.863000 -102.073000   9.115300   0.008232   0.006735   9.557610   0.004499   0.002611 -24.814900  -1.856880   4.039420 -20.351200  -0.005375  -0.001243 -14.245900  -0.005208  -0.000946 -27.063600  -4.305130   8.356100 -28.695600   0.006257   0.000618 -19.111300   0.005389   0.000929 -27.376500  -5.047950   9.636550 -30.826200   0.000869  -0.003098 -20.530300   0.000182  -0.000890 -35.155800 -12.716400  17.243700 -55.628800   0.003327   0.004737 -37.048900  -0.002926   0.005630  12.930600  -1.866690  17.546100  45.548600  40.160500  37.081800 -16.731400 -13.187500  94.770800 -63.369700  27.760400  52.094100 -52.281000  39.502900  74.716800  20.353800  -0.034215  -0.025534   5.176900  -0.017988  -0.011436  23.785700   3.341680   7.545660  19.635600   0.006981  -0.003082  13.744900   0.001121  -0.002247  14.554200  -3.114800 -11.774900  14.877100  -0.008174   0.006099   9.908160  -0.004613   0.006815   5.245530  -1.129370 -12.125600   5.366970  -0.001585  -0.002604   3.574400   0.000978  -0.000927  -2.734970   0.589913 -12.268500   0.000000   0.000797  -0.001555  -0.436741   0.001171   0.005157   0.417880   8.826640   4.752920   0.296414   0.743287  13.310300  -3.455350  -3.719420   3.418470   0.000000   0.000000   0.000000   2.997410   8.475300  -7.117960  -1.372150   1.867880  -8.756750  -4.681440  -1.983100   4.331190  -0.000000   0.000000   0.000000
  0.412441  89.785100   3.290160  -0.717983  -6.902510  -1.477250   1.278270   6.118020  -1.111060   2.699600  12.208200  -2.380490   0.633616  -2.777820   0.038261   1.047900  -5.630490   8.699020  -9.018130  -6.560940   3.336730 -57.920700  34.927300 -30.320300   0.413376  -5.293380 -107.453000  13.562300 -32.835700  -4.557520  52.877100  51.158200 -100.562000   7.945050  -0.008586   0.001252   8.972490  -0.004270   0.001375 -25.601800  -1.540000   3.220470 -20.983800  -0.005310  -0.001247 -14.688700  -0.005300  -0.000895 -27.129900  -4.297170   8.321030 -28.978500   0.006086   0.000981 -19.299700   0.005370   0.001247 -27.266300  -4.784310   9.185990 -29.969100   0.000695  -0.002252 -19.959400   0.000363   0.000103 -34.640800 -12.438800  17.302800 -54.810100   0.004126   0.000277 -36.503600  -0.002985   0.005607  12.888900  -1.800480  17.527800  45.821300  39.887600  36.928900 -15.873000 -13.906400  95.009400 -59.931700  29.363900  52.012400 -53.713500  40.331600  74.343600  19.758800  -0.040722  -0.040902   4.879400  -0.021443  -0.019239  23.754000   3.195140   7.107210  19.597700   0.003328   0.008759  13.718400   0.001115   0.005080  13.657000  -2.882100 -11.840900  13.962100  -0.001662   0.000206   9.298730  -0.000794   0.003882   5.251550  -1.131060 -12.155400   5.373580   0.002552  -0.002499   3.578800   0.001272  -0.000792  -2.310200   0.558893 -12.959400   0.000000   0.001578  -0.001630  -0.436726   0.001588   0.005640   0.417045   8.784050   4.747160   0.290664   0.742619  13.319300  -3.449070  -3.723700   3.468960  -0.000000   0.000000   0.000000   2.991750   8.464500  -7.117750  -1.364150   1.846720  -8.720780  -4.680580  -1.980280   4.346620  -0.000000   0.000000   0.000000
  0.413033  89.780900   3.299750  -0.719991  -6.875870  -1.519890   1.259960   6.091700  -1.101970   2.660070  12.156200  -2.359400   0.650715  -2.765840   0.038098   1.076030  -5.606200   8.691920  -8.933050  -6.524810   3.367990 -58.555200  34.204800 -29.749700   0.427156  -5.277940 -107.244000  14.163900 -33.079800  -3.991270  52.542100  50.957400 -100.127000   8.160140  -0.006880   0.003414   9.080040  -0.003533   0.002595 -26.862800  -1.587900   3.151060 -22.017400  -0.005244  -0.001239 -15.412200  -0.005390  -0.000836 -27.282700  -4.279040   8.233520 -29.686700   0.005934   0.001330 -19.771400   0.005355   0.001604 -27.244100  -4.496660   8.657470 -29.606700   0.000594  -0.001252 -19.718000   0.000568   0.000959 -34.097200 -12.216200  17.353900 -53.951300   0.004922   0.000352 -35.931600  -0.002917   0.005218  12.808100  -1.727450  17.455000  46.369600  39.303200  36.546900 -15.181800 -14.121300  95.125800 -58.459500  29.219300  52.072000 -58.118600  42.389400  75.465900  18.041100  -0.045640  -0.047803   4.020560  -0.023972  -0.022758  21.733300   2.781840   7.115540  17.943200   0.001232   0.013023  12.560200   0.000990   0.004123  11.670500  -2.569910 -12.311900  11.951000   0.000480  -0.001820   7.959390   0.000474   0.002163   4.748250  -1.061000 -12.526300   4.866210   0.003639  -0.002391   3.240890   0.001614  -0.000663  -4.648700   1.176010 -13.590000   0.036430   0.002393  -0.001618  -0.194102   0.002021   0.006098   0.409952   8.703540   4.732680   0.286725   0.787881  13.327300  -3.444200  -3.726960   3.518490   0.000000   0.000000  -0.000000   2.975400   8.465910  -7.127280  -1.352560   1.808940  -8.684210  -4.676090  -1.968120   4.371530  -0.000000   0.000000  -0.000000
  0.414084  89.773400   3.315320  -0.718123  -6.849130  -1.554610   1.226640   6.054910  -1.077040   2.590060  12.084000  -2.304420   0.687317  -2.735740   0.037930   1.136430  -5.545070   8.643850  -8.804480  -6.509200   3.388790 -58.895500  33.828500 -29.346100   0.408120  -5.538610 -107.046000  14.911000 -33.297500  -3.405080  52.452800  50.902100 -100.012000   8.618370  -0.003768   0.007620   9.309150  -0.002174   0.004707 -27.696200  -1.651720   3.141230 -22.697600  -0.005168  -0.001219 -15.888300  -0.005475  -0.000770 -27.387600  -4.266930   8.173740 -30.168400   0.005797   0.001700 -20.092200   0.005345   0.001981 -27.229700  -4.309810   8.312010 -29.408700   0.000560  -0.000078 -19.586200   0.000784   0.001832 -33.680500 -12.021500  17.360500 -53.282300   0.005785   0.000615 -35.486000  -0.002723   0.004572  12.728800  -1.682600  17.359600  46.701400  38.897000  36.254300 -14.571000 -14.246200  95.209100 -57.826400  28.213100  52.495000 -62.948700  44.069200  77.671200  16.070500  -0.047952  -0.049779   3.035290  -0.025132  -0.023794  19.804100   2.523960   7.191170  16.345600   0.000286   0.014066  11.441900   0.000747   0.002608  10.290600  -2.367140 -12.681300  10.553600   0.001367  -0.002851   7.028740   0.000935   0.000670   4.246620  -0.991272 -12.852600   4.358850   0.003947  -0.002281   2.902990   0.001970  -0.000534  -6.975340   1.790130 -14.167100   0.072860   0.003217  -0.001585   0.048508   0.002463   0.006524   0.396216   8.647700   4.718310   0.282785   0.833143  13.334500  -3.439180  -3.732020   3.561680  -0.000000   0.000000  -0.000000   2.954370   8.467250  -7.140780  -1.341040   1.771300  -8.663280  -4.670340  -1.953060   4.399500   0.000000   0.000000  -0.000000
